<svg width="24" height="24" viewBox="0 0 24 24" xmlns="http://www.w3.org/2000/svg" role="img" aria-label="Google logo">
  <title>Google</title>
  <circle cx="12" cy="12" r="11" fill="#fff" stroke="#e0e0e0" stroke-width="2" />
  <path fill="#4285F4" d="M20.16 12.18c0-.64-.06-1.25-.17-1.84H12v3.48h4.57a3.91 3.91 0 0 1-1.7 2.56v2.12h2.75c1.61-1.48 2.54-3.66 2.54-6.32Z"/>
  <path fill="#34A853" d="M12 21c2.3 0 4.23-.76 5.64-2.06l-2.75-2.12c-.76.51-1.72.82-2.89.82-2.22 0-4.1-1.5-4.77-3.52H4.39v2.22A9 9 0 0 0 12 21Z"/>
  <path fill="#FBBC04" d="M7.23 14.12a5.4 5.4 0 0 1 0-4.24V7.66H4.39a9.01 9.01 0 0 0 0 8.68l2.84-2.22Z"/>
  <path fill="#EA4335" d="M12 6.4c1.25 0 2.37.43 3.25 1.28l2.44-2.44A9 9 0 0 0 12 3a9 9 0 0 0-7.61 4.66l2.84 2.22C7.9 7.9 9.78 6.4 12 6.4Z"/>
</svg>
